<svg height="64" width="64" xmlns="http://www.w3.org/2000/svg">
	<g stroke="#000" stroke-linejoin="round" stroke-width="6">
		<path d="m27.8 59.9c-9.9-1.2-17.7-9.2-17.6-18.1 0-5.1 1.8-9.2 5.5-12.5-1 13.1 1 24 12.1 30.6z"/>
		<path d="m26.4 4.6c-1.6 5.4.1 10 3.8 13.8 4.8 5 13.6 12.1 13.7 20.4.1 6.2-3.8 11.7-12.2 12.4 3.2-2.6 5-4.9 5-8.7-.1-11-16.3-16.2-16.2-26 0-5.1 2.1-8.8 5.9-12z"/>
		<path d="m44.5 10c-.5 15 9.3 17.6 9.3 30.2 0 9.7-7.8 18.1-17 19.3 3.3-2 11.4-6.1 11.3-17.4 0-11.9-6.4-10.3-6.5-23.6 0-3 1.5-5.5 2.8-8.5z"/>
		<path d="m23.8 33.6s-1.1 7.9 1.3 7.9c4.2 0 3-3.3 3-3.3s2.7 1.3 2.8 4.2c.1 2.7-.8 4.8-4.4 5.6-2.9.6-5.7-1.6-5.9-4.6-.5-5.3 3.2-9.8 3.2-9.8z"/>
	</g>
		<path d="m26.4 4.5c-3.8 3.2-5.9 6.9-5.9 12-.1 9.8 16.1 15 16.2 26 0 3.8-1.8 6.1-5 8.7 8.4-.7 12.3-6.2 12.3-12.4-.1-8.3-8.9-15.4-13.7-20.4-3.7-3.8-5.5-8.4-3.9-13.8zm18.1 5.5c-1.4 2.9-2.8 5.4-2.8 8.4.1 13.3 6.5 11.7 6.5 23.6 0 11.4-8.1 15.4-11.3 17.4 9.2-1.1 17-9.5 17-19.3 0-12.5-9.9-15.1-9.4-30.1zm-28.9 19.3c-3.6 3.3-5.4 7.4-5.4 12.5-.1 8.9 7.7 16.9 17.6 18.1-11.1-6.6-13.1-17.5-12.2-30.6zm8.2 4.3c-.1.1-3.6 4.6-3.2 9.8.3 3 3.1 5.2 6 4.6 3.6-.8 4.5-3 4.4-5.6-.1-2.9-2.9-4.2-2.9-4.2s1.2 3.3-2.9 3.3c-2.5 0-1.4-7.8-1.4-7.9z" fill="#d00"/>
</svg>
